<?xml version="1.0" standalone="no"?>
<!DOCTYPE svg PUBLIC "-//W3C//DTD SVG 20010904//EN"
 "http://www.w3.org/TR/2001/REC-SVG-20010904/DTD/svg10.dtd">
<svg version="1.0" xmlns="http://www.w3.org/2000/svg"
 width="160.000000pt" height="160.000000pt" viewBox="0 0 160.000000 160.000000"
 preserveAspectRatio="xMidYMid meet">

<g transform="translate(0.000000,160.000000) scale(0.100000,-0.100000)"
fill="#000000" stroke="none">
<path d="M630 915 c0 -8 7 -15 15 -15 8 0 15 7 15 15 0 8 -7 15 -15 15 -8 0
-15 -7 -15 -15z"/>
<path d="M260 845 c0 -59 3 -75 14 -75 11 0 16 15 18 53 l3 52 30 -52 c18 -32
37 -53 48 -53 15 0 17 10 17 75 0 59 -3 75 -14 75 -11 0 -16 -14 -18 -47 l-3
-48 -28 48 c-18 30 -36 47 -48 47 -17 0 -19 -8 -19 -75z"/>
<path d="M437 862 c-46 -50 13 -114 74 -82 26 15 26 75 0 90 -29 15 -56 12
-74 -8z m58 -37 c0 -23 -4 -30 -20 -30 -21 0 -31 25 -21 51 11 28 41 12 41
-21z"/>
<path d="M630 825 c0 -42 3 -55 15 -55 12 0 15 13 15 55 0 42 -3 55 -15 55
-12 0 -15 -13 -15 -55z"/>
<path d="M700 824 c0 -41 4 -54 15 -54 11 0 15 12 15 45 0 38 3 45 20 45 17 0
20 -7 20 -45 0 -38 3 -45 20 -45 17 0 20 7 20 46 0 38 3 45 18 42 12 -2 18
-15 20 -46 2 -28 8 -42 18 -42 10 0 14 12 14 44 0 53 -19 74 -54 58 -13 -6
-27 -8 -31 -4 -4 4 -27 8 -51 8 l-44 1 0 -53z"/>
<path d="M915 870 c-4 -6 6 -10 24 -10 16 0 33 -4 36 -10 3 -5 -2 -10 -12 -10
-10 0 -29 -7 -41 -16 -17 -12 -20 -19 -12 -34 7 -14 21 -18 55 -18 l45 1 0 43
c0 33 -5 46 -19 54 -25 13 -68 13 -76 0z m65 -65 c0 -8 -9 -15 -20 -15 -11 0
-20 7 -20 15 0 8 9 15 20 15 11 0 20 -7 20 -15z"/>
<path d="M1055 864 c-35 -36 -4 -101 42 -89 18 4 24 2 21 -7 -3 -7 -19 -13
-36 -13 -40 0 -36 -19 5 -23 46 -5 63 19 63 88 l0 58 -40 0 c-23 1 -46 -6 -55
-14z m65 -39 c0 -28 -4 -35 -19 -35 -26 0 -34 15 -27 46 4 15 14 24 26 24 16
0 20 -7 20 -35z"/>
<path d="M1202 864 c-50 -34 -1 -106 61 -90 39 9 33 23 -9 22 -22 -1 -39 4
-41 12 -3 8 8 12 36 12 45 0 54 16 25 44 -20 20 -44 20 -72 0z m53 -14 c4 -6
-5 -10 -20 -10 -15 0 -24 4 -20 10 3 6 12 10 20 10 8 0 17 -4 20 -10z"/>
</g>
</svg>
